<svg xmlns="http://www.w3.org/2000/svg" xmlns:xlink="http://www.w3.org/1999/xlink" version="1.1" x="0px" y="0px" viewBox="0 0 100 125" enable-background="new 0 0 100 100" xml:space="preserve"><g><path d="M32.488,50.856c-2.164,0-3.982,1.425-4.619,3.379h-2.153c-0.637-1.954-2.455-3.379-4.619-3.379   c-2.69,0-4.879,2.188-4.879,4.879s2.188,4.879,4.879,4.879c2.164,0,3.982-1.425,4.619-3.379h2.153   c0.637,1.954,2.456,3.379,4.619,3.379c2.69,0,4.879-2.188,4.879-4.879S35.179,50.856,32.488,50.856z M21.098,57.614   c-1.036,0-1.879-0.843-1.879-1.879s0.843-1.879,1.879-1.879c0.97,0,1.761,0.741,1.859,1.685c-0.008,0.064-0.02,0.127-0.02,0.193   s0.011,0.129,0.02,0.193C22.859,56.873,22.068,57.614,21.098,57.614z M32.488,57.614c-1.036,0-1.88-0.843-1.88-1.879   s0.844-1.879,1.88-1.879s1.879,0.843,1.879,1.879S33.524,57.614,32.488,57.614z"/><path d="M33.236,63.834c-0.842-0.095-1.565,0.503-1.656,1.326c-0.253,2.294-2.188,4.024-4.499,4.024   c-2.311,0-4.245-1.73-4.499-4.025c-0.091-0.824-0.853-1.42-1.656-1.326c-0.823,0.091-1.417,0.833-1.326,1.656   c0.423,3.817,3.64,6.695,7.481,6.695c3.844,0,7.06-2.878,7.481-6.695C34.653,64.667,34.06,63.925,33.236,63.834z"/><path d="M26.25,28.597c-11.855,0-21.5,9.925-21.5,22.125c0,2.308,0.354,4.604,1.055,6.826c0.053,0.17,0.138,0.32,0.24,0.454   c-0.099,0.297-0.174,0.606-0.214,0.928c-0.156,1.259,0.156,2.584,0.879,3.733c0.723,1.148,1.782,2.004,2.984,2.409   c0.496,0.167,1.003,0.25,1.498,0.25c0.045,0,0.09-0.008,0.135-0.009c0.531,8.991,5.657,13.644,15.265,13.837   c0.011,0,0.021,0.003,0.032,0.003c0.008,0,0.017,0,0.024,0c0.008,0,0.016,0,0.024,0c0.011,0,0.021-0.003,0.032-0.003   c9.609-0.193,14.735-4.847,15.265-13.839c0.038,0.001,0.076,0.008,0.114,0.008c1.687,0,3.438-0.961,4.505-2.656   c1.154-1.838,1.18-4.026,0.235-5.581c0.606-2.075,0.926-4.21,0.926-6.359C47.75,38.522,38.105,28.597,26.25,28.597z M44.75,50.722   c0,1.515-0.177,3.024-0.526,4.503c-0.553-0.122-1.127-0.14-1.701-0.04c0.484-7.55-0.525-13.499-3.003-17.758   C42.751,40.872,44.75,45.557,44.75,50.722z M15.075,35.517c-3.418,4.31-4.862,10.914-4.301,19.669   c-0.833-0.146-1.67-0.052-2.432,0.275c-0.387-1.556-0.591-3.144-0.591-4.738C7.75,44.519,10.634,39.013,15.075,35.517z    M44.049,61.065c-0.66,1.049-1.836,1.549-2.568,1.09c-0.097-0.061-0.198-0.106-0.302-0.143c-0.201-0.099-0.423-0.161-0.662-0.161   c-0.006,0-0.013,0-0.02,0c-0.828,0.011-1.491,0.691-1.48,1.519c0.109,8.545-3.823,12.606-12.368,12.78   c-8.546-0.174-12.477-4.235-12.368-12.78c0.011-0.828-0.652-1.508-1.48-1.519c-0.007,0-0.014,0-0.02,0   c-0.238,0-0.46,0.061-0.66,0.16c-0.104,0.037-0.207,0.082-0.305,0.144c-0.419,0.263-0.91,0.159-1.164,0.073   c-0.541-0.182-1.052-0.606-1.402-1.163c-0.351-0.557-0.511-1.201-0.44-1.768c0.032-0.267,0.15-0.754,0.57-1.018   c0.573-0.364,1.487-0.11,2.169,0.598c0.574,0.597,1.525,0.615,2.121,0.04c0.489-0.471,0.567-1.184,0.271-1.757   c-0.934-9.456,0.367-16.273,3.872-20.259c2.707-3.079,6.286-3.829,8.837-3.912c2.551,0.083,6.13,0.833,8.837,3.912   c3.504,3.986,4.805,10.803,3.871,20.259c-0.296,0.574-0.218,1.287,0.271,1.757c0.597,0.575,1.548,0.557,2.121-0.04   c0.682-0.709,1.593-0.959,2.17-0.598C44.649,58.739,44.709,60.015,44.049,61.065z"/><path d="M79.988,50.856c-2.164,0-3.982,1.425-4.619,3.379h-2.153c-0.637-1.954-2.455-3.379-4.619-3.379   c-2.69,0-4.879,2.188-4.879,4.879s2.188,4.879,4.879,4.879c2.164,0,3.982-1.425,4.619-3.379h2.153   c0.637,1.954,2.456,3.379,4.619,3.379c2.69,0,4.879-2.188,4.879-4.879S82.679,50.856,79.988,50.856z M68.598,57.614   c-1.036,0-1.879-0.843-1.879-1.879s0.843-1.879,1.879-1.879s1.879,0.843,1.879,1.879S69.634,57.614,68.598,57.614z M79.988,57.614   c-1.036,0-1.88-0.843-1.88-1.879s0.844-1.879,1.88-1.879s1.879,0.843,1.879,1.879S81.024,57.614,79.988,57.614z"/><path d="M80.736,63.834c-0.838-0.095-1.564,0.503-1.656,1.326c-0.253,2.294-2.188,4.024-4.499,4.024   c-2.311,0-4.245-1.73-4.499-4.025c-0.091-0.824-0.844-1.42-1.656-1.326c-0.823,0.091-1.417,0.833-1.326,1.656   c0.423,3.817,3.64,6.695,7.481,6.695c3.844,0,7.06-2.878,7.481-6.695C82.153,64.667,81.56,63.925,80.736,63.834z"/><path d="M95.25,50.722c0-8.992-5.243-16.744-12.746-20.201c0.16-0.587,0.246-1.188,0.246-1.799c0-4.342-4.094-7.875-9.125-7.875   S64.5,24.38,64.5,28.722c0,0.647,0.099,1.281,0.279,1.901C57.392,34.129,52.25,41.817,52.25,50.722   c0,2.308,0.354,4.604,1.055,6.826c0.053,0.17,0.138,0.32,0.24,0.454c-0.099,0.297-0.174,0.606-0.214,0.928   c-0.156,1.259,0.156,2.584,0.879,3.733c0.723,1.148,1.782,2.004,2.984,2.409c0.496,0.167,1.003,0.25,1.498,0.25   c0.045,0,0.09-0.008,0.135-0.009c0.531,8.991,5.657,13.644,15.265,13.837c0.011,0,0.021,0.003,0.032,0.003c0.008,0,0.017,0,0.024,0   c0.008,0,0.016,0,0.024,0c0.011,0,0.021-0.003,0.032-0.003c9.609-0.193,14.735-4.847,15.265-13.839   c0.038,0.001,0.076,0.008,0.114,0.008c1.687,0,3.438-0.961,4.505-2.656c1.154-1.838,1.18-4.026,0.235-5.581   C94.93,55.006,95.25,52.871,95.25,50.722z M67.5,28.722c0-2.688,2.748-4.875,6.125-4.875s6.125,2.187,6.125,4.875   c0,0.248-0.025,0.494-0.073,0.737c-1.446-0.428-2.953-0.703-4.506-0.808c-0.013-0.001-0.025-0.002-0.038-0.003   c-0.458-0.03-0.918-0.051-1.383-0.051c-0.537,0-1.067,0.027-1.594,0.067c-0.033,0.003-0.066,0.005-0.1,0.008   c-1.54,0.124-3.035,0.414-4.468,0.855C67.531,29.262,67.5,28.993,67.5,28.722z M67.332,32.808c0.487-0.187,0.977-0.353,1.471-0.496   c0.045-0.013,0.09-0.023,0.135-0.036c0.481-0.135,0.964-0.253,1.449-0.347c0.1-0.019,0.202-0.03,0.302-0.048   c0.446-0.079,0.893-0.15,1.342-0.194c0.197-0.019,0.398-0.019,0.596-0.031c0.654-0.042,1.309-0.046,1.964-0.015   c0.256,0.012,0.514,0.017,0.767,0.04c0.395,0.036,0.789,0.094,1.183,0.157c0.148,0.023,0.296,0.043,0.443,0.07   c0.454,0.085,0.907,0.188,1.358,0.309c0.067,0.018,0.134,0.035,0.201,0.054c0.487,0.136,0.971,0.292,1.451,0.471   c7.133,2.656,12.256,9.702,12.256,17.98c0,1.515-0.177,3.024-0.526,4.503c-0.533-0.117-1.087-0.135-1.64-0.045   c0.294-4.54-0.699-8.218-2.987-10.938c-3.434-4.083-8.906-5.037-12.908-5.115c-0.006,0-0.011-0.002-0.017-0.002   c-0.008,0-0.017,0-0.024,0c-0.008,0-0.016,0-0.024,0c-0.006,0-0.011,0.002-0.017,0.002c-4.002,0.079-9.474,1.033-12.908,5.115   c-2.288,2.72-3.28,6.398-2.987,10.938c-0.813-0.132-1.628-0.039-2.371,0.281c-0.387-1.556-0.591-3.144-0.591-4.738   C55.25,42.512,60.29,35.514,67.332,32.808z M91.549,61.065c-0.661,1.049-1.837,1.549-2.568,1.09   c-0.097-0.061-0.198-0.106-0.302-0.143c-0.201-0.099-0.423-0.161-0.662-0.161c-0.006,0-0.013,0-0.02,0   c-0.828,0.011-1.491,0.691-1.48,1.519c0.109,8.545-3.823,12.606-12.368,12.78c-8.546-0.174-12.477-4.235-12.368-12.78   c0.011-0.828-0.652-1.508-1.48-1.519c-0.007,0-0.014,0-0.02,0c-0.238,0-0.46,0.061-0.66,0.16c-0.104,0.037-0.207,0.082-0.305,0.144   c-0.42,0.263-0.91,0.159-1.164,0.073c-0.541-0.182-1.052-0.606-1.402-1.163c-0.351-0.557-0.511-1.201-0.44-1.768   c0.032-0.267,0.15-0.754,0.57-1.018c0.573-0.364,1.487-0.11,2.169,0.598c0.575,0.597,1.525,0.615,2.121,0.04   c0.491-0.473,0.567-1.19,0.266-1.765c-0.736-4.785-0.044-8.48,2.06-10.98c2.705-3.217,7.276-3.978,10.653-4.047   c3.377,0.069,7.948,0.83,10.653,4.047c2.103,2.5,2.795,6.195,2.06,10.981c-0.3,0.575-0.224,1.292,0.266,1.765   c0.598,0.575,1.548,0.557,2.121-0.04c0.682-0.709,1.593-0.959,2.17-0.598C92.149,58.739,92.209,60.015,91.549,61.065z"/></g></svg>